<svg xmlns="http://www.w3.org/2000/svg" xmlns:xlink="http://www.w3.org/1999/xlink" viewBox="0 0 184.27 24.28"><defs><style>.a{fill:url(#a);}.b{fill:#fff;}</style><linearGradient id="a" x1="0.73" y1="12.95" x2="36.42" y2="12.95" gradientUnits="userSpaceOnUse"><stop offset="0" stop-color="#a8ff78"/><stop offset="1" stop-color="#009245"/></linearGradient></defs><title>logo_web_white</title><path class="a" d="M18.58,1.56A17.87,17.87,0,0,0,.73,19.41a4.93,4.93,0,0,0,9.85,0,8,8,0,0,1,16,0,4.92,4.92,0,0,0,9.84,0A17.86,17.86,0,0,0,18.58,1.56Zm13,20.79a2.83,2.83,0,1,1,2.77-2.83A2.8,2.8,0,0,1,31.57,22.35Z" transform="translate(-0.73 -0.5)"/><path class="b" d="M51.85,24.4V1.48h8c7.94,0,11.36,4.27,11.36,11.11,0,7-3.7,11.81-11.9,11.81Zm7.28-3.93c5.29,0,7.12-2.88,7.12-7.63,0-5.69-2.21-7.43-6.77-7.43H56.72V20.47Z" transform="translate(-0.73 -0.5)"/><path class="b" d="M74.16,7.91h4.78V18.32c0,1.77.57,2.56,2.09,2.56a5.21,5.21,0,0,0,3.14-1.3V7.91h4.77V24.4H84.83l-.35-1.78a6.81,6.81,0,0,1-5.25,2.12c-3.39,0-5.07-1.83-5.07-5.47Z" transform="translate(-0.73 -0.5)"/><path class="b" d="M107.49,24.4h-4.78V14c0-1.77-.69-2.53-2.18-2.53a5.3,5.3,0,0,0-3.23,1.3V24.4H92.52V7.91h4.24L97,9.55a7.72,7.72,0,0,1,5.26-2c3.64,0,5.22,1.8,5.22,5.57Z" transform="translate(-0.73 -0.5)"/><path class="b" d="M115.81,13.67l5.45-5.76h5.28l-5.47,5.91L127,24.4h-5.29l-4.27-7.54-1.59,1.55v6H111V.5h4.77Z" transform="translate(-0.73 -0.5)"/><path class="b" d="M139.14,23.6a9.91,9.91,0,0,1-4.84,1.18c-3.45,0-5.26-1.59-5.26-5.35v-8h-2.46V7.91H129V3l4.78-.63V7.91h4.37v3.48h-4.37v7.37c0,1.46.41,2.22,1.93,2.22a6,6,0,0,0,2.73-.76Z" transform="translate(-0.73 -0.5)"/><path class="b" d="M151.64,12.24A8.12,8.12,0,0,0,146,13.73V24.4H141.2V7.91h4.08l.35,2.59a6,6,0,0,1,5.19-2.94c.25,0,.54,0,.82,0Z" transform="translate(-0.73 -0.5)"/><path class="b" d="M152.53,16.2c0-5.95,3.64-8.64,8.07-8.64,5,0,7.09,3,7.09,7.63,0,.53,0,1.58-.1,2.15h-10c.09,2.72,1.23,3.73,3.32,3.73a2.52,2.52,0,0,0,2.69-2.34l4,1c-.6,3.07-3.07,5.07-7,5.07C154.49,24.78,152.53,20.66,152.53,16.2Zm10.22-1.9c0-2.37-.85-3.29-2.41-3.29-1.36,0-2.69.88-2.72,3.29Z" transform="translate(-0.73 -0.5)"/><path class="b" d="M169.84,16.2c0-5.95,3.64-8.64,8.07-8.64,5,0,7.09,3,7.09,7.63,0,.53,0,1.58-.09,2.15h-10c.1,2.72,1.24,3.73,3.33,3.73,1.7,0,2.37-.95,2.69-2.34l4,1c-.61,3.07-3.07,5.07-7,5.07C171.8,24.78,169.84,20.66,169.84,16.2Zm10.22-1.9c0-2.37-.85-3.29-2.4-3.29-1.36,0-2.69.88-2.72,3.29Z" transform="translate(-0.73 -0.5)"/></svg>